<svg width="188" height="40" viewBox="0 0 188 40" fill="none" xmlns="http://www.w3.org/2000/svg">
<g clip-path="url(#clip0_0_553)">
<path d="M67.0075 16.7465H64.1545C63.9227 15.5995 63.3543 14.719 62.449 14.1051C61.5436 13.4912 60.4936 13.1843 59.2986 13.1843C58.2256 13.1843 57.2624 13.4408 56.409 13.9538C55.5553 14.4668 54.8833 15.2176 54.3926 16.2061C53.9018 17.1947 53.6564 18.4066 53.6564 19.8419C53.6564 21.2829 53.9033 22.4992 54.3973 23.4906C54.891 24.482 55.563 25.2314 56.4134 25.7386C57.2638 26.2459 58.2226 26.4995 59.2895 26.4995C60.4724 26.4995 61.5176 26.1969 62.4263 25.5916C63.3345 24.9864 63.9106 24.1189 64.1545 22.9891L67.0075 22.9978C66.8064 24.1621 66.3552 25.191 65.6542 26.0845C64.9533 26.9779 64.0571 27.6768 62.9657 28.1812C61.8743 28.6856 60.6431 28.9377 59.2712 28.9377C57.6495 28.9377 56.2047 28.5732 54.9368 27.844C53.6685 27.1148 52.6705 26.0701 51.9417 24.7097C51.2133 23.3494 50.8489 21.7268 50.8489 19.8419C50.8489 17.9512 51.2147 16.3272 51.9465 14.9697C52.6778 13.6123 53.6777 12.569 54.9459 11.8398C56.2138 11.1106 57.6557 10.746 59.2712 10.746C60.5944 10.746 61.7996 10.9824 62.8881 11.4551C63.9762 11.9277 64.8815 12.6122 65.6041 13.5085C66.3263 14.4048 66.7943 15.4842 67.0075 16.7465ZM74.2593 28.9896C73.3693 28.9896 72.5662 28.834 71.8498 28.5227C71.1335 28.2115 70.5651 27.7547 70.1443 27.1523C69.7235 26.5499 69.5132 25.8136 69.5132 24.9432C69.5132 24.1881 69.6671 23.5684 69.9751 23.0843C70.2831 22.6 70.6944 22.2167 71.2096 21.9343C71.7246 21.6519 72.3025 21.44 72.9427 21.2988C73.5825 21.1576 74.2351 21.0495 74.8994 20.9745C75.7407 20.8823 76.4219 20.806 76.9434 20.7454C77.4645 20.6849 77.8454 20.5855 78.0864 20.4471C78.327 20.3088 78.4475 20.084 78.4475 19.7727V19.7122C78.4475 18.9571 78.2234 18.372 77.7755 17.957C77.3272 17.542 76.6614 17.3345 75.7773 17.3345C74.8566 17.3345 74.1329 17.5247 73.6055 17.9051C73.0782 18.2856 72.7138 18.7121 72.5127 19.1848L69.9432 18.6314C70.4003 17.4209 71.1639 16.5535 72.2336 16.0289C73.3038 15.5044 74.4728 15.2421 75.7407 15.2421C76.3018 15.2421 76.8962 15.3041 77.5239 15.428C78.152 15.5519 78.7449 15.7796 79.3027 16.1111C79.8605 16.4425 80.3146 16.9108 80.6651 17.516C81.0156 18.1213 81.191 18.9081 81.191 19.8765V28.6956H78.5208V26.8799H78.4109C78.1487 27.3757 77.6825 27.8512 77.0119 28.3066C76.3413 28.7619 75.4239 28.9896 74.2593 28.9896ZM74.8537 26.9145C75.6158 26.9145 76.2651 26.7733 76.8017 26.4909C77.3382 26.2084 77.748 25.8381 78.0315 25.3798C78.3149 24.9216 78.4567 24.4302 78.4567 23.9056V22.1937C78.3289 22.3147 78.0483 22.4213 77.6154 22.5136C77.1825 22.6058 76.7255 22.6836 76.2439 22.747C75.7619 22.8104 75.3719 22.8623 75.073 22.9027C74.2805 23.0007 73.6026 23.1981 73.0386 23.4949C72.4746 23.7918 72.1926 24.2861 72.1926 24.9778C72.1926 25.6176 72.4428 26.1003 72.9427 26.426C73.4426 26.7517 74.0795 26.9145 74.8537 26.9145ZM95.3562 18.6573L92.8779 19.0724C92.7193 18.6285 92.4252 18.2207 91.9952 17.8489C91.5657 17.4771 90.924 17.2912 90.0703 17.2912C89.2961 17.2912 88.6486 17.4541 88.1271 17.7798C87.6059 18.1055 87.3485 18.5248 87.3543 19.0378C87.3485 19.4874 87.5206 19.8462 87.8711 20.1143C88.2216 20.3823 88.7841 20.6028 89.5583 20.7757L91.7898 21.2599C94.3501 21.819 95.6305 23.0179 95.6305 24.8567C95.6305 25.6579 95.388 26.3669 94.9035 26.9837C94.4186 27.6005 93.7451 28.0847 92.8823 28.4363C92.0198 28.7879 91.0214 28.9637 89.8876 28.9637C88.3084 28.9637 87.0251 28.6452 86.0377 28.0083C85.05 27.3713 84.4402 26.4649 84.2087 25.289L86.8515 24.9086C87.1807 26.2228 88.1868 26.8799 89.8693 26.8799C90.7654 26.8799 91.4818 26.7027 92.0183 26.3482C92.5548 25.9937 92.8229 25.56 92.8229 25.0469C92.8229 24.1996 92.1615 23.6376 90.8387 23.3609L88.4611 22.8681C87.1441 22.5914 86.1747 22.1418 85.5528 21.5193C84.931 20.8967 84.6204 20.1157 84.6204 19.1761C84.6204 18.3922 84.8518 17.7048 85.3151 17.114C85.7784 16.5232 86.4186 16.0635 87.2357 15.7349C88.0524 15.4064 88.9885 15.2421 90.0429 15.2421C91.5609 15.2421 92.7559 15.5533 93.6275 16.1759C94.4995 16.7984 95.0756 17.6256 95.3562 18.6573ZM104.683 28.9637C103.306 28.9637 102.117 28.6812 101.117 28.1164C100.117 27.5515 99.3478 26.7575 98.8083 25.7343C98.2685 24.7112 97.9989 23.5137 97.9989 22.1418C97.9989 20.7815 98.2685 19.5825 98.8083 18.5449C99.3478 17.5074 100.104 16.6976 101.076 16.1153C102.048 15.5332 103.187 15.2421 104.492 15.2421C105.552 15.2421 106.557 15.4655 107.505 15.9122C108.453 16.3589 109.224 17.0708 109.818 18.0478C110.413 19.0248 110.71 20.3145 110.71 21.917V22.8335H100.724C100.761 24.1132 101.142 25.0988 101.867 25.7905C102.593 26.4822 103.54 26.8281 104.711 26.8281C105.491 26.8281 106.165 26.6696 106.732 26.3525C107.299 26.0355 107.704 25.5628 107.948 24.9345L110.536 25.3755C110.225 26.4534 109.555 27.3209 108.524 27.978C107.494 28.6351 106.214 28.9637 104.683 28.9637ZM100.733 20.8967H108.03C108.025 19.8823 107.701 19.0421 107.061 18.3764C106.421 17.7106 105.57 17.3777 104.51 17.3777C103.772 17.3777 103.127 17.5405 102.576 17.8662C102.024 18.1919 101.588 18.6213 101.268 19.1545C100.948 19.6877 100.77 20.2684 100.733 20.8967ZM126.649 16.5823C126.295 15.5332 125.706 14.7046 124.879 14.0965C124.054 13.4883 123.019 13.1843 121.775 13.1843C120.72 13.1843 119.769 13.4408 118.922 13.9538C118.074 14.4668 117.405 15.2176 116.915 16.2061C116.424 17.1947 116.178 18.4037 116.178 19.8332C116.178 21.2685 116.425 22.4819 116.919 23.4733C117.413 24.4648 118.09 25.217 118.949 25.73C119.809 26.243 120.787 26.4995 121.885 26.4995C123.384 26.4995 124.594 26.0802 125.515 25.2415C126.436 24.4028 126.911 23.2687 126.942 21.8392H122.314V19.6344H129.676V21.6489C129.676 23.1361 129.342 24.4259 128.675 25.5181C128.007 26.6105 127.088 27.4534 125.917 28.0472C124.747 28.6409 123.403 28.9377 121.885 28.9377C120.196 28.9377 118.712 28.5703 117.431 27.8353C116.151 27.1004 115.154 26.0528 114.441 24.6924C113.728 23.3321 113.371 21.7181 113.371 19.8505C113.371 17.9656 113.734 16.3431 114.459 14.9827C115.185 13.6224 116.178 12.5762 117.44 11.8441C118.702 11.1121 120.141 10.746 121.756 10.746C123.104 10.746 124.326 10.9925 125.424 11.4853C126.521 11.9781 127.431 12.6626 128.153 13.5388C128.876 14.4149 129.34 15.4294 129.548 16.5823H126.649ZM141.939 23.188V15.415H144.682V28.6956H141.994V26.3957H141.847C141.524 27.1047 141.008 27.6941 140.297 28.1639C139.587 28.6337 138.705 28.8686 137.65 28.8686C136.303 28.8686 135.198 28.4464 134.335 27.6019C133.472 26.7575 133.041 25.5109 133.041 23.8624V15.415H135.775V23.5511C135.775 24.4561 136.041 25.1766 136.571 25.7127C137.101 26.2488 137.79 26.5168 138.638 26.5168C139.15 26.5168 139.66 26.3957 140.169 26.1536C140.678 25.9116 141.102 25.5441 141.44 25.0513C141.779 24.5584 141.945 23.9373 141.939 23.188ZM152.437 28.9896C151.547 28.9896 150.744 28.834 150.027 28.5227C149.311 28.2115 148.742 27.7547 148.322 27.1523C147.901 26.5499 147.691 25.8136 147.691 24.9432C147.691 24.1881 147.845 23.5684 148.153 23.0843C148.46 22.6 148.872 22.2167 149.387 21.9343C149.902 21.6519 150.48 21.44 151.12 21.2988C151.76 21.1576 152.412 21.0495 153.077 20.9745C153.918 20.8823 154.6 20.806 155.121 20.7454C155.642 20.6849 156.023 20.5855 156.264 20.4471C156.505 20.3088 156.625 20.084 156.625 19.7727V19.7122C156.625 18.9571 156.401 18.372 155.953 17.957C155.505 17.542 154.839 17.3345 153.955 17.3345C153.034 17.3345 152.31 17.5247 151.783 17.9051C151.256 18.2856 150.891 18.7121 150.69 19.1848L148.121 18.6314C148.578 17.4209 149.342 16.5535 150.411 16.0289C151.481 15.5044 152.65 15.2421 153.918 15.2421C154.479 15.2421 155.074 15.3041 155.702 15.428C156.329 15.5519 156.922 15.7796 157.48 16.1111C158.038 16.4425 158.492 16.9108 158.843 17.516C159.193 18.1213 159.369 18.9081 159.369 19.8765V28.6956H156.698V26.8799H156.589C156.326 27.3757 155.86 27.8512 155.19 28.3066C154.519 28.7619 153.601 28.9896 152.437 28.9896ZM153.031 26.9145C153.794 26.9145 154.442 26.7733 154.979 26.4909C155.516 26.2084 155.926 25.8381 156.209 25.3798C156.493 24.9216 156.634 24.4302 156.634 23.9056V22.1937C156.506 22.3147 156.226 22.4213 155.793 22.5136C155.36 22.6058 154.903 22.6836 154.421 22.747C153.94 22.8104 153.55 22.8623 153.251 22.9027C152.458 23.0007 151.78 23.1981 151.216 23.4949C150.652 23.7918 150.37 24.2861 150.37 24.9778C150.37 25.6176 150.62 26.1003 151.12 26.426C151.62 26.7517 152.257 26.9145 153.031 26.9145ZM163.008 28.6956V15.415H165.651V17.5247H165.797C166.053 16.8099 166.504 16.2465 167.151 15.8344C167.797 15.4222 168.534 15.2161 169.364 15.2161C169.748 15.2161 170.092 15.2594 170.397 15.3459C170.702 15.4323 170.97 15.5505 171.202 15.7003L170.324 17.8619C170.159 17.7812 169.973 17.7178 169.766 17.6717C169.559 17.6256 169.321 17.6025 169.053 17.6025C168.108 17.6025 167.32 17.8835 166.689 18.4455C166.058 19.0075 165.742 19.7208 165.742 20.5855V28.6956H163.008ZM178.527 28.955C177.393 28.955 176.384 28.6812 175.5 28.1336C174.616 27.586 173.921 26.7978 173.415 25.7689C172.909 24.74 172.656 23.5108 172.656 22.0813C172.656 20.646 172.91 19.4182 173.419 18.398C173.928 17.3777 174.628 16.5967 175.518 16.0548C176.408 15.513 177.417 15.2421 178.545 15.2421C179.417 15.2421 180.119 15.379 180.653 15.6528C181.186 15.9266 181.601 16.2451 181.896 16.6082C182.192 16.9713 182.422 17.2912 182.587 17.5679H182.751V10.9881H185.486V28.6956H182.815V26.6292H182.587C182.422 26.9116 182.186 27.2344 181.878 27.5976C181.57 27.9607 181.148 28.2777 180.612 28.5487C180.075 28.8196 179.38 28.955 178.527 28.955ZM179.13 26.7503C180.313 26.7503 181.22 26.3165 181.851 25.449C182.482 24.5815 182.797 23.4503 182.797 22.0553C182.797 20.6661 182.485 19.5494 181.86 18.7049C181.235 17.8605 180.325 17.4383 179.13 17.4383C178.307 17.4383 177.621 17.64 177.072 18.0435C176.524 18.447 176.111 18.996 175.833 19.6906C175.556 20.3852 175.417 21.1734 175.417 22.0553C175.417 22.943 175.558 23.7413 175.838 24.4503C176.118 25.1593 176.534 25.7199 177.086 26.132C177.638 26.5442 178.319 26.7503 179.13 26.7503Z" fill="white"/>
<path d="M22.5837 40C33.7083 40 42.7265 31.0457 42.7265 20C42.7265 8.9543 33.7083 0 22.5837 0C11.4591 0 2.4408 8.9543 2.4408 20C2.4408 31.0457 11.4591 40 22.5837 40Z" fill="#00F3FF"/>
<path d="M22.8898 16.8858C26.4258 15.4975 30.3863 17.1512 31.7928 20.6703C33.2387 24.2899 31.4431 28.4977 27.7342 29.9757C26.5671 30.4264 25.2896 30.5849 24.0331 30.4348C25.9271 31.0412 28.0034 30.9629 29.8362 30.216C34.4174 28.3901 36.5861 23.2065 34.7513 18.7798C32.9793 14.5002 28.0996 12.5093 23.7895 14.2061C20.0335 15.6841 17.6525 19.7089 18.4737 23.2962C18.5287 23.5294 18.4462 23.2352 18.4737 23.3357C18.2968 20.3367 19.9509 18.0373 22.8898 16.8858Z" fill="black"/>
<path d="M21.786 24.3554C18.2958 25.6439 14.4178 23.8021 13.1923 20.2435C11.9668 16.6849 13.8089 12.855 17.2952 11.645C18.3926 11.281 19.5734 11.1839 20.7234 11.3631C18.9948 10.7577 17.0848 10.7577 15.3562 11.3631C11.0322 12.8586 8.71315 17.6236 10.2333 22.0139C11.7535 26.4042 16.5662 28.7064 20.8979 27.0895C24.6131 25.7046 26.715 21.9104 26.2147 18.1269C26.1837 17.8949 26.1488 17.6807 26.1294 17.5844C26.3311 20.4827 24.6364 23.2988 21.786 24.3554Z" fill="black"/>
<path d="M19.2813 23.2722C19.1253 23.3245 18.9589 23.2963 18.8201 23.1941C18.6813 23.0918 18.5819 22.9242 18.5446 22.7295L18.331 21.6806C18.2475 21.2652 18.442 20.8419 18.773 20.7183L23.6019 19.0127C23.7572 18.9629 23.9222 18.9916 24.0604 19.0925C24.1986 19.1935 24.2987 19.3584 24.3386 19.5508L24.5559 20.5861C24.6464 20.9984 24.4553 21.425 24.1249 21.5483L19.2813 23.2722Z" fill="black"/>
</g>
<defs>
<clipPath id="clip0_0_553">
<rect width="188" height="40" fill="white"/>
</clipPath>
</defs>
</svg>
